<svg width="265" height="47" viewBox="0 0 265 47" fill="none" xmlns="http://www.w3.org/2000/svg">
<path d="M65.4993 0L51.4432 45.996L51.4911 46.1934H40.7338L40.7816 45.996L32.7974 21.5832L25.0044 46.1934H14.1995L0 0H11.7612L19.6019 26.1894L27.3949 0H38.0565L46.0407 25.9262L53.7381 0H65.4993ZM81.4304 7.89631C92.331 7.89631 102.323 10.989 102.323 27.2422C102.323 42.0478 94.339 46.5882 81.7173 46.5882C68.8087 46.5882 61.4938 41.9162 61.4938 27.2422C61.4938 11.4496 70.6732 7.89631 81.4304 7.89631ZM81.8129 35.7966C87.1197 35.7966 90.4664 33.8225 90.4664 27.2422C90.4664 20.0698 85.2074 18.6879 81.7173 18.6879C78.2272 18.6879 73.3028 20.4646 73.3028 26.9132C73.3028 32.9671 75.9801 35.7966 81.8129 35.7966ZM104.633 42.1136V0.526421V0.131603H115.773V46.1934H104.633V42.1136ZM138.493 33.7567C142.748 33.7567 147.576 31.4536 147.576 31.4536L151.497 43.298C151.497 43.298 145.043 46.3908 133.951 46.3908C125.202 46.3908 123.528 44.0219 123.528 26.979V19.3459H118.03V7.96211H123.528V0H134.668V7.96211H148.15V19.3459H134.668V26.979C134.668 26.979 134.333 33.7567 138.493 33.7567ZM191.927 46.2592H180.931C180.931 45.0747 180.931 43.8903 180.931 42.7716C178.301 44.9431 174.094 46.9172 169.17 46.9172C161.807 46.9172 151.528 46.5224 151.528 34.4805C151.528 26.0578 160.134 23.0309 168.978 23.0309C173.759 23.0309 177.154 24.1495 179.736 25.4656C178.349 19.8724 175.385 19.0827 169.313 19.0827C160.229 19.0827 155.161 21.7148 155.114 21.7806L152.58 11.3838C152.819 11.2522 159.799 7.17248 169.982 7.17248C175.433 7.17248 186.811 8.22532 189.823 17.5693C191.784 23.8863 191.927 33.9541 191.927 46.2592ZM170.461 37.31C175.481 37.31 179.688 35.4017 180.166 34.3489C180.166 34.0199 180.166 33.9541 180.166 33.6909C179.879 33.2961 179.066 31.9142 170.986 31.9142C165.584 31.9142 163.576 32.7697 163.576 34.4805C163.576 36.9152 167.162 37.31 170.461 37.31ZM265.005 0L249.754 23.0967L264.862 46.1934H249.849L241.1 33.0987L232.303 46.1934H217.291L232.542 23.0967L217.434 0H232.447L241.148 13.1605L249.993 0H265.005Z" fill="white"/>
</svg>
